<svg width="24" height="15" viewBox="0 0 24 15" fill="none" xmlns="http://www.w3.org/2000/svg">
<path d="M22.9027 15L19.7015 14.9885C19.7015 14.9885 19.6382 15 19.5275 15C19.2691 15 18.7364 14.925 18.1088 14.4579C16.9908 13.6044 15.9149 11.4821 15.0659 11.4821C15.0079 11.4821 14.9551 11.4937 14.9077 11.511C14.1693 11.7647 13.9426 12.5721 13.9426 13.5582C13.9426 13.8985 13.7211 14.06 13.1198 14.06H11.4691C9.61278 14.06 7.82496 14.0138 5.81038 11.6032C2.84651 8.05075 0.0672311 1.73587 0.0672311 1.73587C0.0672311 1.73587 -0.0909811 1.37255 0.0777799 1.1534C0.230719 0.957323 0.589336 0.940023 0.726455 0.940023H0.779192H4.20715C4.20715 0.940023 4.52358 1.00346 4.75562 1.19377C4.95603 1.34948 5.05623 1.6436 5.05623 1.6436C5.05623 1.6436 5.63634 2.87774 6.3694 4.27336C7.59292 6.58016 8.25214 7.34717 8.72678 7.34717C8.80061 7.34717 8.87972 7.32987 8.95355 7.28374C9.66024 6.86274 9.45456 3.44867 9.45456 3.44867C9.45456 3.44867 9.45984 2.21453 9.09067 1.67243C8.81116 1.23991 8.26796 1.1188 8.03064 1.07843C7.84079 1.0496 8.15194 0.565166 8.55802 0.340254C9.09067 0.057669 9.97667 0 11.0367 0H11.5535C12.5555 0.0173014 12.5819 0.132642 12.9774 0.236448C14.1588 0.542099 13.758 1.75317 13.758 4.65398C13.758 5.5767 13.605 6.88005 14.2115 7.31834C14.2537 7.34717 14.3117 7.37024 14.3908 7.37024C14.7864 7.37024 15.6302 6.81661 16.9908 4.31373C17.7397 2.88351 18.3251 1.47059 18.3251 1.47059C18.3251 1.47059 18.4569 1.22261 18.652 1.08997C18.8419 0.968858 18.8419 0.968858 19.0898 0.968858H19.1161C19.3904 0.968858 22.1169 0.940023 22.7128 0.940023H22.7814C23.3562 0.940023 23.8784 0.951556 23.9733 1.33218C24.1104 1.91465 23.5567 2.95271 22.0905 5.10957C19.6699 8.64475 19.3956 8.38524 21.3997 10.4268C23.3246 12.376 23.7201 13.3218 23.7834 13.4429C24.585 14.8847 22.9027 15 22.9027 15Z" fill="#A9ABB3"/>
</svg>
