<svg width="15" height="15" viewBox="0 0 15 15" fill="none" xmlns="http://www.w3.org/2000/svg">
<path d="M4.43225 0C1.98644 0 0 1.98644 0 4.43225V10.5678C0 13.0136 1.98644 15 4.43225 15H10.5678C13.0136 15 15 13.0136 15 10.5678V4.43225C15 1.98644 13.0136 0 10.5678 0H4.43225ZM11.5914 2.72689C11.9669 2.72689 12.2731 3.03314 12.2731 3.40861C12.2731 3.78409 11.9669 4.09034 11.5914 4.09034C11.2159 4.09034 10.9097 3.78409 10.9097 3.40861C10.9097 3.03314 11.2159 2.72689 11.5914 2.72689ZM7.49895 3.75052C9.56929 3.75052 11.2495 5.43071 11.2495 7.49895C11.2495 9.56929 9.56929 11.2495 7.49895 11.2495C5.43071 11.2495 3.75052 9.56929 3.75052 7.49895C3.75052 5.43071 5.43071 3.75052 7.49895 3.75052ZM7.49895 4.43225C5.80828 4.43225 4.43225 5.80828 4.43225 7.49895C4.43225 9.19172 5.80828 10.5678 7.49895 10.5678C9.19172 10.5678 10.5678 9.19172 10.5678 7.49895C10.5678 5.80828 9.19172 4.43225 7.49895 4.43225Z" fill="#A9ABB3"/>
</svg>
