<svg width="14" height="17" viewBox="0 0 14 17" fill="none" xmlns="http://www.w3.org/2000/svg">
<g clip-path="url(#clip0)">
<path fill-rule="evenodd" clip-rule="evenodd" d="M9.57895 0H1.47368C0.663158 0 0 0.695454 0 1.54545V11.5909C0 12.0159 0.331579 12.3636 0.736842 12.3636C1.14211 12.3636 1.47368 12.0159 1.47368 11.5909V2.31818C1.47368 1.89318 1.80526 1.54545 2.21053 1.54545H9.57895C9.98421 1.54545 10.3158 1.19773 10.3158 0.772727C10.3158 0.347727 9.98421 0 9.57895 0ZM10.0137 3.54682L13.5726 7.27909C13.8453 7.565 14 7.95909 14 8.36864V15.4545C14 16.3045 13.3368 17 12.5263 17H4.41368C3.60316 17 2.94737 16.3045 2.94737 15.4545L2.95474 4.63636C2.95474 3.78636 3.61053 3.09091 4.42105 3.09091H8.96737C9.35789 3.09091 9.73368 3.25318 10.0137 3.54682ZM9.57895 8.5H12.8947L8.8421 4.25V7.72727C8.8421 8.15227 9.17368 8.5 9.57895 8.5Z" fill="#4C5EB4"/>
</g>
<defs>
<clipPath id="clip0">
<rect width="14" height="17" fill="white"/>
</clipPath>
</defs>
</svg>
