<svg width="19" height="15" viewBox="0 0 19 15" fill="none" xmlns="http://www.w3.org/2000/svg">
<path d="M16.3674 1.66315C14.7233 0.251843 12.1212 0.0130061 12.0094 0.00214989C11.8366 -0.0114209 11.6739 0.0917134 11.6028 0.262699C11.5952 0.270841 11.5393 0.411971 11.4757 0.629095C12.5633 0.824507 13.9 1.22076 15.107 2.0214C15.3027 2.14896 15.3611 2.42037 15.2417 2.62664C15.1629 2.76505 15.0282 2.83833 14.891 2.83833C14.8173 2.83833 14.7411 2.81662 14.6725 2.77048C12.5938 1.39446 9.99933 1.32389 9.49873 1.32389C9.00067 1.32389 6.40364 1.39446 4.32754 2.77048C4.13441 2.90076 3.87776 2.83562 3.75833 2.62935C3.63889 2.42037 3.69734 2.15168 3.89301 2.0214C5.10004 1.22076 6.43667 0.824507 7.52428 0.63181C7.46075 0.411971 7.40484 0.273555 7.39976 0.262699C7.32607 0.0917134 7.16343 -0.0168486 6.99064 0.00214989C6.87883 0.0130061 4.27672 0.251842 2.60974 1.68215C1.74067 2.5425 0 7.56893 0 11.9114C0 11.9901 0.020329 12.0634 0.0559051 12.1312C1.25532 14.3839 4.53337 14.9756 5.28046 15C5.283 15 5.28808 15 5.29317 15C5.4253 15 5.54982 14.9321 5.62605 14.8182L6.38077 13.7108C4.34278 13.149 3.30346 12.1937 3.24248 12.1367C3.07222 11.9765 3.05698 11.697 3.2069 11.5152C3.35683 11.3306 3.61856 11.3143 3.79136 11.4744C3.81423 11.4989 5.73024 13.2359 9.49873 13.2359C13.2748 13.2359 15.1909 11.4907 15.2112 11.4744C15.3814 11.317 15.6432 11.3306 15.7931 11.5152C15.943 11.6997 15.9278 11.9765 15.7575 12.1367C15.6965 12.1937 14.6572 13.149 12.6192 13.7108L13.3739 14.8182C13.4502 14.9321 13.5747 15 13.7068 15C13.7119 15 13.717 15 13.7195 15C14.4666 14.9756 17.7447 14.3839 18.9441 12.1312C18.9797 12.0634 19 11.9901 19 11.9114C19 7.56893 17.2593 2.5425 16.3674 1.66315ZM6.8153 10.1473C6.01739 10.1473 5.3694 9.35749 5.3694 8.38314C5.3694 7.4088 6.01739 6.61901 6.8153 6.61901C7.61321 6.61901 8.2612 7.4088 8.2612 8.38314C8.2612 9.35749 7.61321 10.1473 6.8153 10.1473ZM12.1847 10.1473C11.3868 10.1473 10.7388 9.35749 10.7388 8.38314C10.7388 7.4088 11.3868 6.61901 12.1847 6.61901C12.9826 6.61901 13.6306 7.4088 13.6306 8.38314C13.6306 9.35749 12.9826 10.1473 12.1847 10.1473Z" fill="#A9ABB3"/>
</svg>
